# xmcd
#
# Track frame offsets: 
#        150
#        16489
#        32045
#        51077
#        62385
#        72619
#        88260
#        106680
#        121668
#        138258
#        151914
#        164342
#
# Disc length: 2375 seconds
#
# Revision: 1
# Processed by: cddbd v1.5.2PL0 Copyright (c) Steve Scherf et al.
# Submitted via: ExactAudioCopy v0.90b4
#
DISCID=9609450c
DTITLE=Eleni Mandell - Miracle of Five
DYEAR=2007
DGENRE=Pop
TTITLE0=Moonglow, Lamp Low
TTITLE1=Girls
TTITLE2=My Twin
TTITLE3=Salt Truck
TTITLE4=Wings in His Eyes
TTITLE5=Make-Out King
TTITLE6=Miracle of Five
TTITLE7=Perfect Stranger
TTITLE8=Dear Friend
TTITLE9=Somebody Else
TTITLE10=Beautiful
TTITLE11=Miss Me
EXTD=YEAR: 2007
EXTT0=
EXTT1=
EXTT2=
EXTT3=
EXTT4=
EXTT5=
EXTT6=
EXTT7=
EXTT8=
EXTT9=
EXTT10=
EXTT11=
PLAYORDER=
